<?xml version="1.0" standalone="no"?>
<!DOCTYPE svg PUBLIC "-//W3C//DTD SVG 20010904//EN"
 "http://www.w3.org/TR/2001/REC-SVG-20010904/DTD/svg10.dtd">
<svg version="1.0" xmlns="http://www.w3.org/2000/svg"
 width="95.000000pt" height="96.000000pt" viewBox="0 0 95.000000 96.000000"
 preserveAspectRatio="xMidYMid meet">

<g transform="translate(0.000000,96.000000) scale(0.100000,-0.100000)"
fill="#000000" stroke="none">
<path d="M62 898 c-11 -14 -15 -33 -13 -62 0 -10 45 -64 100 -120 62 -64 101
-112 105 -131 4 -16 24 -70 44 -120 32 -78 36 -100 35 -165 -1 -58 3 -80 17
-101 13 -17 20 -47 22 -90 l3 -64 35 2 c19 1 76 4 125 5 97 3 115 9 115 37 0
19 39 51 61 51 7 0 34 -20 60 -45 38 -36 55 -45 83 -45 25 0 38 6 46 19 19 37
10 64 -39 121 l-49 56 39 80 c48 97 72 184 55 200 -14 13 -205 58 -213 51 -15
-15 10 -35 59 -46 130 -29 127 -27 116 -69 -12 -47 -76 -182 -86 -182 -12 0
-98 91 -134 142 -18 26 -62 84 -97 128 l-64 82 42 -22 c40 -20 61 -20 61 0 0
6 -28 24 -62 41 -35 17 -75 40 -90 50 -14 11 -36 19 -47 19 -17 0 -21 6 -21
33 -1 60 -64 106 -119 86 -19 -8 -31 -2 -68 31 -48 42 -99 54 -121 28z m99
-57 c42 -36 44 -42 41 -81 l-4 -42 -54 53 c-55 54 -70 80 -59 99 11 18 32 11
76 -29z m153 -47 c22 -21 31 -64 19 -83 -27 -43 -93 -12 -93 44 0 51 41 73 74
39z m209 -267 c112 -142 129 -177 88 -177 -9 0 -65 59 -125 130 -100 120 -124
141 -133 114 -1 -5 31 -49 72 -99 71 -84 74 -90 53 -98 -18 -6 -33 3 -91 60
-105 104 -122 154 -68 192 36 26 74 41 82 32 3 -3 58 -72 122 -154z m-118
-172 c-28 -20 -32 -19 -39 13 -3 15 -8 38 -12 52 -6 23 -4 22 32 -12 37 -37
38 -38 19 -53z m148 -10 c18 -24 17 -25 -5 -34 -97 -40 -119 -52 -116 -62 2
-6 44 -41 93 -77 83 -63 100 -82 77 -90 -14 -4 -219 134 -232 157 -15 29 0 52
57 89 80 50 100 52 126 17z m268 -166 c40 -45 57 -72 53 -83 -3 -9 -12 -16
-19 -16 -7 0 -70 51 -140 112 l-126 113 30 7 c16 5 33 13 37 19 7 12 70 -46
165 -152z m-141 -5 c0 -2 -11 -11 -24 -19 -24 -16 -27 -15 -96 37 l-71 53 37
17 38 16 58 -50 c32 -28 58 -52 58 -54z m-218 -51 l42 -28 -42 -9 c-23 -5 -44
-7 -46 -5 -9 11 -14 69 -6 69 6 0 29 -12 52 -27z"/>
<path d="M620 585 c0 -10 7 -15 18 -13 21 4 19 22 -2 26 -10 2 -16 -3 -16 -13z"/>
</g>
</svg>
