<?xml version="1.0" standalone="no"?>
<!DOCTYPE svg PUBLIC "-//W3C//DTD SVG 20010904//EN"
 "http://www.w3.org/TR/2001/REC-SVG-20010904/DTD/svg10.dtd">
<svg version="1.0" xmlns="http://www.w3.org/2000/svg"
 width="83.000000pt" height="113.000000pt" viewBox="0 0 83.000000 113.000000"
 preserveAspectRatio="xMidYMid meet">

<g transform="translate(0.000000,113.000000) scale(0.100000,-0.100000)"
fill="#000000" stroke="none">
<path d="M36 1039 c-10 -37 17 -96 54 -117 l30 -17 0 -135 c0 -124 -2 -136
-20 -148 -11 -7 -20 -19 -20 -28 0 -9 9 -18 20 -21 19 -5 20 -14 20 -269 0
-169 4 -264 10 -264 6 0 10 93 10 259 l0 259 43 7 c52 9 93 29 130 63 l27 26
0 -281 c0 -155 4 -293 9 -306 13 -32 39 -41 67 -22 24 15 24 17 24 205 0 120
4 190 10 190 6 0 10 -68 10 -185 0 -172 1 -186 20 -205 25 -25 35 -25 60 0 14
14 20 33 20 66 l0 45 26 -20 c15 -12 35 -21 46 -21 28 0 73 26 97 56 23 29 22
47 -11 131 -12 32 -18 63 -14 78 7 28 33 34 38 8 2 -12 14 -2 41 35 20 29 37
54 37 57 0 6 -123 -6 -130 -12 -3 -3 3 -9 13 -14 16 -10 16 -12 -8 -40 -14
-17 -25 -35 -25 -40 0 -5 11 -42 25 -81 28 -79 26 -98 -12 -128 -35 -28 -64
-25 -96 8 l-27 28 0 245 c1 243 1 244 20 221 31 -38 43 -98 33 -165 -8 -46 -7
-62 4 -72 35 -35 56 12 55 125 -1 88 -24 144 -75 181 -38 27 -45 29 -142 29
l-102 0 -39 -52 c-43 -58 -80 -83 -136 -93 l-38 -7 0 146 c0 83 4 146 9 146 5
0 23 12 40 26 34 28 49 82 32 111 -9 15 -10 14 -11 -14 0 -30 -41 -93 -61 -93
-5 0 -9 18 -9 39 0 57 -18 61 -22 5 l-3 -46 -27 21 c-17 14 -30 37 -36 64 -8
39 -9 40 -16 16z"/>
<path d="M342 1019 c-13 -42 -12 -50 7 -92 12 -25 21 -52 21 -60 0 -26 45 -57
83 -57 43 0 73 25 83 67 3 16 13 42 21 59 11 22 14 42 8 70 l-8 39 -14 -35
c-19 -45 -28 -50 -64 -37 -21 8 -37 8 -58 0 -37 -14 -58 5 -63 57 l-3 35 -13
-46z"/>
</g>
</svg>
